<?xml version="1.0" standalone="no"?>
<!DOCTYPE svg PUBLIC "-//W3C//DTD SVG 20010904//EN"
 "http://www.w3.org/TR/2001/REC-SVG-20010904/DTD/svg10.dtd">
<svg version="1.0" xmlns="http://www.w3.org/2000/svg"
 width="1024.000000pt" height="1024.000000pt" viewBox="0 0 1024.000000 1024.000000"
 preserveAspectRatio="xMidYMid meet">
<metadata>
Created by potrace 1.14, written by Peter Selinger 2001-2017
</metadata>
<g transform="translate(0.000000,1024.000000) scale(0.100000,-0.100000)"
fill="#000000" stroke="none">
<path d="M3304 9765 c-22 -13 -69 -59 -104 -102 -36 -43 -67 -80 -70 -83 -11
-9 -97 -144 -117 -185 -45 -88 -83 -195 -103 -285 -12 -52 -37 -144 -56 -205
-20 -60 -38 -132 -41 -160 -10 -90 -20 -96 -243 -151 -252 -61 -420 -150 -520
-276 -35 -44 -40 -56 -34 -82 8 -39 31 -72 87 -123 53 -49 108 -70 297 -113
80 -18 148 -36 152 -39 4 -3 -19 -41 -50 -84 l-57 -77 -255 -111 c-140 -61
-307 -132 -370 -159 -63 -26 -208 -93 -321 -148 -113 -54 -257 -119 -320 -142
-143 -54 -182 -79 -219 -137 -38 -60 -39 -120 -6 -258 87 -358 301 -713 618
-1028 100 -99 293 -262 325 -274 7 -3 13 -11 13 -18 0 -6 -38 -90 -84 -186
-131 -274 -160 -352 -161 -431 0 -60 3 -70 30 -98 40 -42 134 -69 265 -77
l105 -6 2 -301 c1 -368 18 -537 58 -598 35 -52 79 -78 135 -78 62 1 95 21 195
119 49 49 89 80 94 75 5 -5 32 -44 60 -87 82 -122 279 -361 403 -488 98 -101
119 -117 160 -127 66 -17 98 -15 135 7 31 20 85 89 102 133 5 13 14 36 20 51
l11 29 73 -63 c164 -142 334 -227 427 -215 46 6 46 6 84 -44 50 -65 123 -118
194 -140 l57 -18 7 -113 c13 -224 12 -228 -21 -344 -61 -217 -84 -348 -85
-501 l-1 -141 52 -104 c33 -66 72 -126 107 -164 l55 -60 -6 -91 c-5 -82 -3
-97 17 -139 34 -71 95 -106 180 -105 36 0 85 -2 110 -5 28 -4 63 -1 95 9 41
13 52 13 65 2 31 -28 77 -44 143 -51 58 -6 67 -9 62 -23 -4 -10 -13 -46 -22
-82 -8 -36 -39 -121 -68 -190 -29 -69 -58 -143 -64 -165 -17 -62 -13 -164 8
-210 39 -87 160 -159 343 -204 43 -10 113 -34 155 -52 68 -29 89 -33 163 -33
89 0 144 17 212 65 55 40 104 137 122 242 5 30 39 77 124 172 114 128 280 402
325 535 14 41 20 47 73 68 32 13 84 42 115 64 56 39 57 39 125 33 80 -8 155 6
200 37 30 21 77 80 115 145 l19 33 34 -24 c65 -44 132 -42 211 5 42 26 52 24
141 -20 152 -76 288 -110 540 -134 l141 -14 177 -93 c133 -70 181 -100 192
-121 31 -61 127 -109 218 -109 77 0 154 42 271 146 241 216 318 384 251 546
-61 148 -342 438 -579 596 -57 39 -122 91 -145 117 -37 42 -40 49 -31 78 5 17
9 65 9 106 0 113 -16 138 -197 304 -132 122 -155 148 -167 187 -8 25 -17 52
-20 61 -5 11 7 21 46 40 61 28 265 225 323 311 101 153 95 313 -18 460 -35 45
-36 51 -35 120 2 81 -11 115 -59 159 -43 40 -85 58 -165 69 -81 12 -137 7
-248 -21 -70 -18 -76 -18 -85 -2 -25 41 -99 112 -143 136 -54 29 -175 61 -205
53 -16 -4 -17 -1 -10 27 4 18 7 89 6 160 0 70 0 127 0 127 1 0 60 11 131 25
161 30 227 60 267 123 46 73 47 102 5 185 -19 40 -59 101 -89 137 l-52 64 120
41 c227 78 393 183 449 285 40 73 37 108 -14 210 -84 168 -230 361 -431 575
-179 190 -299 328 -299 344 0 4 31 31 70 60 87 66 209 193 245 256 27 45 28
50 17 107 -21 115 -72 150 -365 249 l-159 54 6 35 c50 292 50 292 50 670 0
354 0 370 -27 522 -41 233 -68 304 -126 336 -65 35 -102 36 -183 3 -223 -91
-894 -306 -1048 -336 -155 -30 -185 -32 -175 -8 16 43 26 117 21 148 -8 42
-56 92 -116 119 -63 29 -231 27 -395 -3 -132 -24 -403 -98 -477 -130 -27 -11
-48 -19 -48 -17 0 1 33 59 73 128 85 145 110 216 111 308 1 82 -23 134 -82
175 -41 28 -50 30 -130 30 -80 0 -102 -5 -270 -63 -271 -92 -538 -233 -699
-369 -28 -23 -53 -43 -56 -43 -3 0 -26 51 -52 113 -26 61 -51 117 -55 122 -5
6 -22 45 -38 86 -16 42 -52 117 -81 167 -28 51 -51 96 -51 100 0 5 -19 30 -43
56 -52 55 -88 60 -153 21z m111 -71 c14 -15 25 -31 25 -36 0 -4 22 -47 49 -96
28 -48 70 -141 95 -207 82 -222 134 -330 166 -350 6 -4 39 18 74 49 184 161
543 349 813 425 147 41 202 47 241 27 86 -45 100 -139 39 -269 -62 -133 -170
-305 -242 -385 -26 -29 -45 -55 -43 -58 3 -2 27 5 54 17 121 52 399 143 534
174 218 50 452 70 503 44 48 -25 67 -51 67 -92 0 -40 -35 -132 -78 -200 -13
-22 -22 -40 -20 -42 3 -4 14 -2 253 49 205 44 326 76 454 121 53 19 170 57
260 86 90 28 236 78 324 110 88 33 171 59 184 59 60 0 83 -35 113 -169 85
-384 89 -841 10 -1288 -11 -62 -20 -116 -20 -121 0 -5 26 -15 58 -22 87 -19
356 -115 407 -144 46 -28 75 -68 75 -107 0 -65 -89 -171 -257 -307 -51 -41
-93 -80 -93 -87 0 -32 132 -192 330 -400 122 -129 212 -240 312 -390 107 -159
142 -233 133 -283 -9 -51 -96 -133 -207 -195 -76 -42 -363 -147 -403 -147 -8
0 -15 -4 -15 -10 0 -5 36 -58 81 -117 150 -199 161 -253 65 -312 -39 -24 -185
-56 -305 -67 l-84 -7 7 -56 c3 -31 9 -103 12 -161 7 -127 -7 -163 -73 -196
-54 -28 -40 -34 76 -34 102 0 189 -20 251 -58 40 -25 60 -47 125 -137 l20 -28
75 29 c67 25 88 28 195 28 103 1 126 -2 160 -20 77 -41 106 -147 58 -220 -15
-24 -15 -27 0 -35 39 -22 75 -61 102 -111 27 -47 30 -62 30 -138 0 -76 -4 -91
-33 -145 -21 -38 -76 -105 -155 -186 -113 -117 -127 -128 -195 -154 -40 -16
-75 -32 -78 -37 -3 -5 1 -19 8 -31 8 -12 24 -49 37 -83 24 -65 54 -98 234
-259 143 -128 156 -156 131 -300 l-15 -90 63 -67 c35 -36 95 -86 133 -110 223
-142 498 -418 571 -573 38 -80 29 -134 -45 -274 -35 -67 -235 -259 -325 -312
-80 -47 -199 -13 -245 71 -23 41 -34 48 -228 142 l-204 99 -137 9 c-210 14
-351 49 -544 137 l-96 43 -50 -31 c-27 -17 -68 -33 -90 -36 -37 -5 -44 -2 -91
42 -28 26 -57 45 -64 42 -7 -3 -34 -40 -59 -83 -65 -113 -114 -161 -175 -170
-29 -4 -63 -2 -88 5 -83 25 -85 25 -118 -6 -47 -44 -146 -109 -194 -128 -36
-14 -43 -23 -58 -68 -43 -132 -207 -391 -349 -550 -69 -78 -88 -106 -102 -154
-50 -174 -65 -199 -139 -240 -44 -25 -61 -28 -135 -28 -73 0 -95 5 -160 33
-41 17 -111 41 -155 53 -90 23 -203 79 -244 120 -37 37 -55 105 -47 171 4 29
29 107 55 173 45 111 131 370 131 393 0 18 -110 29 -168 17 -26 -6 -41 -2 -75
21 -59 41 -67 43 -109 28 -22 -7 -82 -13 -149 -12 l-113 0 -45 44 -44 44 7
101 c7 115 5 121 -69 199 -30 32 -68 89 -91 135 l-39 80 1 160 c1 173 20 288
85 520 16 61 30 115 30 120 -2 52 -19 351 -20 353 -1 1 -7 2 -15 2 -8 0 -43 9
-79 20 -74 23 -139 75 -213 171 l-45 59 -39 -20 c-48 -25 -57 -25 -126 0 -83
29 -195 102 -307 202 -55 48 -105 88 -111 88 -7 0 -18 -17 -25 -37 -29 -83
-83 -189 -104 -205 -33 -26 -78 -22 -130 12 -91 61 -415 440 -528 619 -35 56
-68 101 -73 101 -5 0 -62 -52 -127 -115 -65 -63 -129 -117 -142 -121 -33 -8
-83 19 -100 54 -34 66 -49 226 -56 597 l-6 340 -101 -4 c-154 -5 -263 23 -286
74 -19 42 20 152 169 472 51 111 93 206 93 210 0 5 -14 17 -31 27 -84 49 -246
183 -351 288 -277 278 -453 553 -564 883 -55 162 -68 267 -40 310 24 37 78 68
206 120 63 26 201 87 305 137 302 144 624 284 867 379 l77 30 110 137 c60 75
108 138 106 140 -2 2 -88 24 -192 48 -259 61 -316 80 -358 121 -62 61 -63 66
-3 129 97 102 235 165 508 230 58 13 133 38 166 54 67 33 74 46 89 163 4 27
13 67 21 90 8 23 22 82 30 132 26 154 108 371 181 484 50 76 144 191 188 229
44 39 68 40 100 6z"/>
<path d="M3324 9618 c-41 -47 -153 -226 -188 -298 -64 -136 -101 -298 -112
-485 -7 -115 10 -212 51 -302 14 -30 25 -56 25 -57 0 0 -71 -1 -158 -1 -216
-1 -306 -23 -590 -148 -40 -18 -89 -46 -110 -64 l-37 -31 30 -12 c17 -6 100
-23 185 -37 154 -24 560 -99 592 -109 12 -4 -9 -30 -86 -107 -57 -56 -142
-155 -190 -220 -48 -64 -99 -123 -114 -131 -15 -8 -61 -24 -102 -36 -138 -41
-396 -152 -925 -398 -77 -36 -214 -95 -305 -132 -188 -76 -185 -72 -155 -178
118 -408 535 -919 956 -1169 l80 -48 -6 -40 c-17 -118 -154 -446 -259 -619
-38 -62 -43 -76 -25 -76 11 0 336 86 362 96 22 8 25 -39 32 -513 6 -429 10
-506 29 -500 6 2 34 31 61 63 28 33 93 111 145 173 l95 113 7 -34 c8 -41 120
-241 201 -363 70 -104 269 -370 347 -464 l53 -64 24 84 c29 101 66 210 88 262
l16 38 32 -27 c18 -14 81 -70 141 -123 170 -150 371 -291 416 -291 10 0 11 35
4 168 -9 181 -10 279 -3 286 2 3 33 -9 67 -26 62 -31 63 -31 82 -12 10 10 47
73 81 139 34 66 63 121 65 123 1 2 25 -10 53 -25 l50 -29 -50 -39 c-28 -21
-71 -64 -96 -94 -50 -61 -119 -194 -129 -248 -8 -44 16 -90 79 -149 46 -44 47
-46 47 -106 0 -43 6 -70 20 -93 30 -49 61 -60 180 -60 l105 0 7 -174 c3 -95
11 -218 18 -273 9 -83 9 -109 -4 -161 -100 -406 -126 -566 -105 -639 15 -54
61 -110 137 -166 70 -52 74 -56 67 -86 -3 -17 -9 -49 -11 -71 -6 -45 0 -51 81
-78 l40 -14 0 -70 c0 -82 13 -106 59 -102 17 2 37 0 43 -4 7 -4 40 -7 75 -7
35 0 79 0 98 1 19 0 42 7 52 15 12 12 21 13 34 6 34 -19 114 31 114 71 0 16 4
18 23 12 56 -18 97 -17 133 4 23 14 35 17 31 8 -2 -7 -19 -64 -35 -127 -17
-63 -56 -176 -87 -250 -31 -74 -67 -162 -79 -195 -12 -33 -38 -94 -59 -135
-49 -102 -54 -134 -25 -190 30 -58 84 -90 153 -90 28 0 57 4 65 10 11 7 20 -1
37 -29 26 -44 80 -71 143 -71 46 0 137 32 174 61 35 28 96 153 96 199 0 22 7
43 16 51 31 26 191 246 272 375 45 72 117 198 160 280 l79 149 134 6 c128 6
211 20 326 55 50 16 53 19 74 73 11 31 37 119 57 196 46 173 56 180 116 77 50
-86 117 -172 134 -172 18 0 80 33 126 68 l40 30 101 -54 c161 -86 313 -132
523 -159 140 -18 221 -41 342 -97 110 -51 201 -109 270 -174 76 -70 112 -87
171 -82 44 5 56 13 140 89 98 90 119 123 119 191 0 30 8 55 25 80 14 20 25 48
25 61 0 36 -42 92 -144 190 -116 112 -239 205 -391 296 -66 40 -131 82 -143
94 -21 19 -76 94 -164 219 l-27 39 32 50 c24 39 31 63 32 100 l0 49 -195 163
c-143 119 -195 168 -193 182 1 11 9 42 19 69 15 43 16 52 3 75 -8 14 -29 33
-46 41 -18 8 -33 18 -33 21 0 3 19 16 43 29 60 33 77 50 97 96 17 38 22 42 66
48 65 9 153 54 161 84 11 43 -20 62 -106 63 -87 1 -76 7 62 34 92 18 137 43
137 75 0 22 -27 40 -62 41 l-23 0 22 11 c45 22 39 75 -9 85 -26 5 -27 7 -13
23 21 23 19 57 -5 72 -12 8 -20 24 -20 39 0 15 -7 30 -16 33 -25 9 -95 7 -157
-5 l-56 -12 -48 53 c-44 48 -53 53 -102 58 -29 2 -54 10 -56 16 -50 183 -141
237 -364 216 -53 -5 -127 -10 -165 -11 l-70 -2 -12 69 c-14 83 -28 119 -60
161 -23 31 -24 34 -9 62 l15 30 118 3 117 3 3 40 c4 47 -21 207 -48 302 -10
37 -17 69 -15 71 4 4 38 9 314 44 100 13 176 28 178 34 6 18 -104 159 -220
283 -59 63 -104 118 -100 122 5 4 55 17 113 29 151 32 354 101 483 164 171 83
163 65 83 191 -74 115 -163 226 -369 459 -150 169 -195 230 -274 371 -31 55
-71 122 -90 150 -18 27 -33 53 -33 56 0 4 35 26 78 50 100 54 262 161 286 188
13 14 16 25 10 31 -22 22 -195 84 -323 116 -227 56 -214 51 -208 87 2 18 14
75 25 127 59 271 86 662 63 929 -15 173 -55 429 -69 443 -13 13 -56 -1 -292
-92 -270 -105 -447 -160 -661 -205 -188 -39 -486 -112 -658 -161 -85 -24 -158
-44 -162 -44 -4 0 -9 9 -12 20 -4 14 33 70 135 202 163 213 165 216 143 225
-52 19 -375 -52 -565 -126 -58 -22 -154 -69 -213 -104 l-108 -64 -132 -7 c-73
-4 -162 -13 -199 -20 -38 -7 -68 -11 -68 -9 0 2 24 34 54 71 64 80 184 266
290 450 73 127 146 266 146 277 0 10 -58 5 -111 -11 -213 -63 -513 -198 -669
-302 -96 -64 -255 -216 -323 -310 l-46 -63 -6 38 c-31 177 -85 410 -120 513
-76 224 -144 386 -169 402 -20 14 -42 8 -62 -14z m2251 -767 c-11 -10 -85 -40
-165 -66 -241 -79 -363 -140 -570 -288 l-35 -25 -190 32 c-124 21 -185 35
-175 41 7 5 86 11 174 13 159 5 161 5 193 33 94 82 315 177 538 233 181 45
174 43 215 45 34 1 34 1 15 -18z m1555 -86 c37 -292 30 -834 -15 -1095 -21
-119 -92 -440 -100 -448 -7 -7 -104 134 -100 146 3 7 -2 15 -10 18 -8 4 -44
41 -79 83 l-63 77 102 47 c56 26 107 47 114 47 6 0 11 3 11 8 0 4 -36 15 -80
25 -44 10 -114 28 -156 41 l-76 22 45 18 c57 21 67 50 27 71 -16 8 -47 15 -70
15 -22 0 -40 1 -40 3 0 2 9 22 20 45 20 41 27 92 13 92 -5 0 -19 -15 -32 -33
-21 -29 -23 -29 -16 -7 3 14 9 44 12 68 7 54 -8 55 -68 5 -38 -32 -36 -28 16
27 85 91 163 190 229 292 79 121 274 475 282 511 10 46 21 20 34 -78z m-1719
-346 c185 -53 415 -166 625 -305 136 -89 362 -263 464 -355 281 -254 671 -782
871 -1180 44 -88 99 -222 85 -208 -2 2 -28 38 -58 79 -297 413 -397 541 -526
673 -42 43 -77 84 -78 92 -5 34 -87 137 -201 252 -68 69 -126 123 -129 120 -8
-8 156 -197 216 -249 49 -42 128 -140 99 -123 -21 13 -83 61 -199 156 -236
193 -571 439 -598 439 -9 0 -7 -11 8 -40 59 -116 -17 -218 -123 -164 -83 43
-147 120 -147 178 0 37 49 86 86 86 26 0 26 1 11 18 -10 10 -17 35 -17 55 0
44 37 77 87 77 19 0 32 4 28 10 -14 23 -488 316 -615 380 -33 17 -60 32 -60
35 0 9 107 -7 171 -26z m-2215 -314 c-3 -25 -16 -43 -164 -220 -111 -133 -284
-400 -464 -715 -90 -159 -206 -499 -254 -745 l-14 -70 4 70 c8 129 109 475
207 707 27 64 49 120 49 125 0 14 87 238 111 284 81 160 317 442 448 534 42
30 77 55 78 55 1 0 0 -11 -1 -25z m3324 -129 c0 -2 -8 -10 -17 -17 -16 -13
-17 -12 -4 4 13 16 21 21 21 13z m64 -111 c-7 -17 -39 -29 -54 -20 -17 10 9
35 36 35 16 0 22 -4 18 -15z m-909 -276 c33 -30 45 -49 45 -70 0 -43 -17 -44
-66 -4 -53 44 -78 79 -70 100 10 26 45 16 91 -26z m-1316 -105 c29 -37 44
-100 38 -156 -7 -53 -31 -106 -53 -115 -27 -10 -65 7 -84 39 -73 121 18 335
99 232z m790 -207 c75 -57 165 -123 201 -147 l64 -44 -139 -66 c-179 -85 -295
-161 -367 -239 -70 -75 -75 -101 -20 -101 145 1 337 118 448 273 21 29 53 67
72 86 l34 34 71 -50 c40 -27 185 -130 322 -230 240 -173 345 -243 521 -348
l80 -48 20 -106 c13 -71 19 -150 19 -241 0 -135 0 -135 -49 -283 -53 -160
-144 -354 -165 -349 -7 1 -10 -2 -6 -8 3 -5 -12 -40 -35 -77 -22 -37 -40 -73
-40 -81 0 -18 65 -10 200 24 52 13 96 24 97 24 8 0 1 -72 -12 -133 -49 -232
-253 -464 -604 -686 -121 -77 -473 -246 -572 -274 -109 -32 -188 -44 -384 -58
-518 -38 -1055 86 -1161 267 l-28 47 24 16 c98 64 210 166 210 190 0 6 -21 13
-47 16 -117 15 -265 67 -337 118 -25 17 -135 175 -192 274 -35 62 -3 46 89
-44 85 -83 133 -120 143 -111 2 2 -18 34 -45 71 -62 85 -134 232 -128 261 2
11 8 30 12 40 7 15 5 17 -6 11 -12 -8 -12 -6 0 8 7 9 17 15 21 12 4 -2 25 10
46 28 43 37 99 77 107 77 3 0 10 -37 17 -82 24 -167 102 -324 186 -378 l45
-28 82 29 c45 15 154 49 242 74 220 64 212 60 220 104 6 39 -16 157 -41 218
-8 19 -12 39 -8 44 3 6 -5 23 -18 37 -13 15 -36 45 -51 68 -15 23 -54 69 -87
103 l-59 62 37 -7 c20 -3 39 -7 42 -8 3 0 7 4 9 9 2 6 -12 19 -32 30 -39 21
-47 35 -22 35 35 0 11 20 -47 39 -106 34 -187 45 -343 45 -140 0 -378 -24
-430 -44 -14 -5 -31 -33 -50 -82 -15 -40 -52 -122 -82 -182 l-53 -109 -15 36
c-13 32 -13 45 1 119 30 164 148 575 222 775 l45 122 28 -20 c74 -53 251 -91
397 -87 l102 3 16 -30 c8 -17 23 -37 34 -45 27 -22 111 -170 103 -182 -3 -7
-1 -8 5 -4 11 6 14 0 11 -21 0 -3 6 -10 15 -15 9 -5 14 -12 12 -16 -2 -4 4
-19 15 -32 11 -14 56 -78 99 -142 44 -64 113 -157 154 -205 93 -111 292 -307
304 -299 5 3 -5 71 -21 151 -16 81 -27 148 -25 150 8 9 77 -19 71 -28 -3 -6
-1 -7 6 -3 6 4 53 -6 104 -23 80 -26 376 -109 447 -125 39 -8 55 6 42 40 -22
61 -97 227 -188 417 -183 383 -293 656 -348 858 -37 138 -73 340 -81 452 -3
55 -9 105 -12 113 -4 12 20 14 147 14 l152 0 137 -103z m-2344 -47 c-18 -54
-29 -67 -19 -22 12 56 27 97 31 85 3 -7 -3 -35 -12 -63z m888 -273 c30 -111
111 -320 155 -402 l28 -51 -56 8 c-60 9 -294 -6 -349 -22 -19 -5 -36 -8 -38
-6 -2 1 35 101 81 222 111 290 137 354 145 354 3 0 19 -46 34 -103z m-2116
-157 c284 -105 504 -192 499 -198 -2 -2 -43 -18 -91 -36 l-87 -33 31 -22 c17
-12 31 -25 31 -29 0 -4 -18 -18 -40 -32 -22 -14 -40 -28 -40 -32 0 -5 32 -8
70 -8 l71 0 -51 -75 c-27 -41 -50 -76 -50 -79 0 -2 43 11 95 29 52 19 95 32
95 29 0 -2 -14 -32 -31 -66 -17 -34 -37 -78 -44 -99 l-13 -36 46 17 c26 9 60
20 75 24 l28 7 -3 -86 c-3 -99 9 -96 36 8 20 78 55 168 55 142 1 -11 -8 -67
-18 -125 -10 -58 -27 -168 -37 -245 -9 -77 -19 -142 -20 -143 -1 -2 -36 19
-78 47 -57 39 -74 55 -70 69 5 13 4 14 -4 3 -13 -18 -31 -7 -150 88 -278 224
-528 557 -653 868 -24 60 -58 163 -59 180 0 1 43 -18 95 -42 52 -24 193 -81
312 -125z m5639 -861 c-6 -205 -29 -471 -46 -549 -8 -38 -9 -33 -4 35 16 232
23 417 24 566 0 91 3 169 7 173 20 20 26 -42 19 -225z m-226 86 c0 -10 -47
-48 -83 -67 -60 -30 -54 -14 7 20 30 17 57 36 61 42 6 10 15 14 15 5z m-3036
-444 c20 -38 56 -96 81 -130 52 -71 68 -74 176 -42 97 29 122 33 114 21 -3 -6
-24 -19 -45 -30 -22 -11 -59 -47 -85 -80 -51 -66 -51 -67 -25 -173 7 -27 10
-51 7 -54 -10 -9 -44 16 -67 51 -55 79 -133 85 -324 25 -70 -22 -79 -23 -74
-8 4 12 60 48 113 73 52 24 114 74 130 106 14 27 14 38 -6 132 -12 57 -27 120
-34 141 -20 59 -1 43 39 -32z m-318 32 c-4 -9 -10 -36 -13 -60 -6 -42 -15 -53
-28 -33 -3 6 -18 -1 -33 -15 -15 -14 -32 -25 -39 -25 -7 0 -13 -3 -13 -7 0 -5
-12 -17 -27 -27 -17 -13 -24 -14 -19 -5 4 8 -1 4 -12 -8 -11 -12 -22 -19 -26
-16 -3 4 -6 -1 -6 -11 0 -9 4 -15 8 -12 5 3 6 -9 3 -27 l-5 -32 -9 43 c-7 38
-5 49 21 95 17 29 35 51 42 49 6 -1 9 1 6 6 -9 15 10 32 75 67 73 39 84 42 75
18z m735 -406 c26 -68 5 -93 -86 -102 -5 -1 -25 -9 -43 -19 -19 -10 -35 -16
-37 -14 -1 2 -5 24 -7 50 l-5 48 56 32 c102 60 102 60 122 5z m-226 -125 l23
-18 -116 -34 c-65 -18 -127 -39 -140 -47 -30 -19 -48 -12 -56 22 -5 19 -2 33
9 44 8 10 15 22 15 27 0 13 110 54 145 54 17 0 36 4 44 9 10 7 20 2 33 -14 10
-14 29 -33 43 -43z m2445 -247 c0 -8 -75 -57 -113 -73 -8 -4 19 37 63 96 l24
32 13 -22 c7 -13 12 -27 13 -33z m-360 -168 c0 -2 -11 -14 -25 -27 -21 -20
-25 -21 -25 -6 0 9 10 21 23 26 27 11 27 11 27 7z m-140 -176 c-34 -44 -69
-86 -78 -93 -9 -7 -6 1 7 17 90 114 123 155 128 155 2 0 -23 -36 -57 -79z
m911 -7 c10 -27 19 -71 20 -99 4 -43 1 -50 -16 -53 -11 -1 -48 -10 -83 -19
-90 -23 -58 -34 69 -23 224 20 376 30 429 30 103 -1 174 -54 200 -150 7 -26
12 -109 13 -193 0 -128 -3 -150 -18 -167 -10 -11 -15 -20 -10 -20 4 0 13 6 19
14 9 13 16 10 44 -14 21 -17 29 -30 23 -34 -6 -4 -11 -1 -11 6 0 10 -3 9 -9
-2 -6 -8 -8 -26 -7 -40 2 -14 1 -17 -1 -7 -4 18 -5 18 -20 0 -8 -10 -11 -12
-7 -4 5 9 3 12 -4 7 -19 -11 -15 -39 4 -32 14 5 15 4 5 -8 -7 -8 -20 -12 -29
-9 -16 5 -16 5 0 -8 17 -15 15 -79 -4 -79 -5 0 -6 5 -3 10 7 12 3 12 -21 3
-14 -5 -12 -11 17 -35 l34 -30 -45 30 c-25 16 -69 41 -98 56 -29 15 -50 31
-47 36 3 5 0 8 -7 5 -29 -11 -77 34 -113 107 -20 40 -45 82 -55 92 -25 26 -42
17 -139 -75 -40 -38 -80 -69 -87 -69 -7 0 -49 14 -94 30 -45 17 -99 30 -120
30 -29 0 -49 9 -82 35 -24 19 -51 38 -61 41 -10 4 -16 13 -13 20 3 8 2 13 -2
12 -4 0 -24 7 -46 16 -21 9 -41 15 -43 12 -3 -3 5 -10 19 -15 13 -5 30 -16 37
-25 12 -14 8 -16 -35 -16 -30 0 -44 -3 -36 -9 9 -6 -13 -21 -73 -52 -78 -39
-84 -44 -63 -52 13 -5 80 -12 151 -15 112 -4 130 -3 147 13 16 14 25 16 47 7
64 -25 265 -72 368 -86 126 -17 291 -66 287 -85 -1 -7 2 -10 7 -7 14 9 42 -5
34 -17 -3 -6 -1 -7 6 -3 18 11 125 -59 175 -115 66 -73 74 -142 18 -155 -15
-4 -38 -12 -52 -19 -14 -7 -35 -15 -46 -19 -21 -7 -22 -6 -8 33 20 59 10 72
-72 96 -39 10 -60 -26 -80 -137 -3 -21 -11 -38 -18 -39 -6 0 -36 -2 -66 -4
-30 -1 -79 -12 -109 -24 -30 -11 -58 -18 -63 -15 -5 3 -17 3 -26 -1 -9 -4 -41
-9 -71 -11 -45 -2 -54 0 -58 16 -5 21 -36 35 -52 25 -6 -3 -41 10 -78 28 -120
60 -350 147 -388 147 -40 0 -77 -21 -137 -78 l-37 -35 -43 28 c-140 92 -335
276 -411 388 -32 48 -97 172 -97 186 0 5 30 19 68 32 37 12 121 44 187 72 66
27 155 61 197 75 l78 26 124 -64 c69 -35 128 -61 132 -57 5 4 0 21 -10 38 -11
18 -19 52 -19 80 0 27 -4 44 -8 38 -8 -14 -16 -2 -20 34 -4 26 1 30 65 57 38
16 92 37 120 46 28 9 65 26 81 37 17 11 27 17 23 12 -10 -10 9 -45 25 -45 15
0 32 26 58 93 43 110 103 227 113 224 6 -2 18 -26 27 -53z m-1011 -108 c0 -2
-8 -10 -17 -17 -16 -13 -17 -12 -4 4 13 16 21 21 21 13z m-267 -46 c-6 -21
-18 -26 -28 -11 -4 7 17 28 32 31 0 0 -1 -9 -4 -20z m227 6 c0 -2 -8 -10 -17
-17 -16 -13 -17 -12 -4 4 13 16 21 21 21 13z m-369 -184 c8 -52 18 -77 32 -87
23 -16 26 -11 -89 -142 -50 -57 -81 -98 -129 -170 -1 -2 -39 4 -86 13 -50 9
-172 18 -301 21 -150 4 -218 9 -218 17 0 12 59 72 125 129 60 52 136 97 163
97 l24 0 -27 46 c-15 26 -22 44 -16 40 16 -10 122 15 114 27 -3 5 3 6 16 2 15
-4 21 -3 19 7 -2 9 8 13 34 13 20 0 34 3 32 6 -6 10 64 21 78 13 6 -4 8 -3 5
3 -7 12 50 36 64 28 4 -3 34 8 66 24 l58 30 12 -22 c7 -12 17 -55 24 -95z
m514 54 c39 -8 106 -19 150 -26 44 -6 105 -16 135 -22 l54 -10 -64 -30 c-131
-59 -263 -97 -428 -123 -156 -24 -252 -52 -252 -74 0 -6 -4 -11 -9 -11 -6 0
-8 9 -6 19 2 10 -4 29 -12 41 l-15 22 -46 -44 -46 -43 44 50 c24 28 53 57 65
65 11 8 67 56 124 107 98 88 105 92 155 96 28 1 58 2 66 0 8 -1 47 -9 85 -17z
m-375 -69 c0 -2 -9 -12 -20 -22 -24 -21 -27 -14 -4 9 15 15 24 20 24 13z
m-732 -57 l22 -29 -67 -56 c-61 -50 -83 -63 -83 -50 0 2 12 11 28 19 15 8 46
32 70 54 33 30 40 41 30 50 -7 5 -17 11 -23 12 -5 1 -12 4 -15 7 -3 4 1 3 8
-1 6 -4 12 -3 12 3 0 5 -48 10 -115 10 -63 1 -115 -1 -115 -3 0 -3 14 -20 31
-38 17 -18 35 -42 41 -53 12 -22 11 -22 -57 53 l-48 52 130 0 129 0 22 -30z
m2767 -9 c50 -23 68 -43 99 -111 33 -74 56 -193 54 -282 -1 -73 -3 -65 -14 70
-3 39 -10 72 -16 72 -5 0 -7 -9 -3 -20 3 -11 1 -28 -5 -37 -10 -16 -10 -15 -5
4 3 12 1 24 -5 28 -5 3 -10 1 -10 -5 0 -16 -18 -3 -31 22 -9 16 -8 19 3 12 9
-6 8 0 -3 17 -15 22 -15 28 -3 52 17 32 34 35 34 7 0 -11 5 -20 11 -20 13 0 6
26 -26 97 -16 35 -33 57 -54 68 -18 9 -31 11 -31 5 0 -5 -4 -10 -10 -10 -5 0
-7 7 -4 15 4 8 1 15 -5 15 -6 0 -11 -5 -11 -11 0 -5 -5 -7 -10 -4 -7 5 -9 -11
-5 -47 7 -67 -2 -52 -13 25 -10 66 -5 69 63 38z m333 -75 c6 -29 -2 -32 -159
-62 -20 -4 -28 1 -38 22 -6 15 -9 29 -7 32 12 11 114 31 156 29 35 -2 46 -6
48 -21z m-258 -52 c0 -3 -7 -1 -15 6 -8 7 -15 17 -15 22 0 5 7 3 15 -6 8 -8
15 -18 15 -22z m-3450 17 c0 -5 -11 -12 -24 -15 -13 -3 -51 -29 -83 -58 -43
-38 -49 -42 -23 -14 28 31 114 96 127 96 2 0 3 -4 3 -9z m50 -11 c18 -12 2
-12 -25 0 -13 6 -15 9 -5 9 8 0 22 -4 30 -9z m3688 -12 c34 -34 0 -61 -90 -72
-27 -3 -59 -8 -73 -12 -20 -5 -26 -1 -35 22 -13 34 -4 41 70 50 30 3 62 10 70
15 21 12 44 11 58 -3z m-3638 -8 c8 -5 11 -10 5 -10 -5 0 -17 5 -25 10 -8 5
-10 10 -5 10 6 0 17 -5 25 -10z m1240 -85 c0 -8 16 -54 35 -102 64 -158 182
-288 415 -453 72 -51 129 -98 127 -103 -2 -6 -24 -22 -49 -36 l-46 -25 -98 74
c-187 141 -319 291 -403 459 -18 34 -30 70 -27 78 3 8 2 12 -3 9 -9 -6 -34 42
-27 53 3 4 1 13 -4 21 -7 11 -3 18 13 27 31 17 67 16 67 -2z m2431 -5 c25 -14
24 -37 -3 -51 -34 -18 -190 -51 -199 -42 -4 4 -10 27 -14 50 -6 40 -5 42 22
46 58 9 175 7 194 -3z m-3528 -67 c-7 -2 -19 -2 -25 0 -7 3 -2 5 12 5 14 0 19
-2 13 -5z m-60 -10 c-7 -2 -21 -2 -30 0 -10 3 -4 5 12 5 17 0 24 -2 18 -5z
m-70 -10 c-7 -2 -21 -2 -30 0 -10 3 -4 5 12 5 17 0 24 -2 18 -5z m-60 -10 c-7
-2 -19 -2 -25 0 -7 3 -2 5 12 5 14 0 19 -2 13 -5z m3746 1 c40 -8 42 -37 4
-52 -71 -27 -229 -63 -238 -54 -3 3 -5 24 -5 47 l0 42 68 10 c86 13 132 15
171 7z m-3829 -14 c-19 -5 -64 -11 -100 -14 l-65 -5 75 13 c87 15 146 19 90 6z
m1225 -150 c-27 -220 -18 -290 35 -290 26 0 87 72 120 142 l28 59 45 -58 c70
-90 231 -237 320 -292 l38 -23 -40 -27 c-146 -97 -293 -204 -359 -260 -121
-103 -161 -133 -172 -126 -6 4 -8 10 -5 15 6 10 -15 8 -34 -4 -11 -7 -13 -5
-8 8 4 10 3 15 -3 11 -12 -8 -13 11 -1 52 7 25 6 33 -6 37 -49 19 -74 -4 -133
-124 -23 -47 -48 -92 -55 -100 -7 -8 -20 -40 -29 -70 -21 -67 -57 -151 -72
-167 -16 -17 -38 38 -31 75 4 20 -1 39 -16 63 -22 33 -22 41 -22 404 -1 204 1
392 3 418 5 47 7 50 81 107 42 32 132 106 201 163 69 58 126 104 127 103 1 0
-5 -53 -12 -116z m2100 90 c-3 -5 -12 -10 -18 -10 -7 0 -6 4 3 10 19 12 23 12
15 0z m-26 -62 c-1 -39 -2 -41 -8 -13 -4 17 -5 36 -3 43 8 23 12 12 11 -30z
m248 -45 c-3 -10 -5 -4 -5 12 0 17 2 24 5 18 2 -7 2 -21 0 -30z m196 17 c46
-37 13 -66 -101 -90 -34 -7 -64 -11 -66 -9 -2 2 1 27 7 56 12 56 12 56 88 61
34 2 52 -2 72 -18z m-2946 -32 c-24 -133 -28 -267 -22 -603 5 -198 8 -373 9
-389 1 -28 -2 -30 -41 -33 -38 -2 -42 0 -52 29 -17 49 -13 304 9 523 11 110
20 259 20 332 0 130 0 132 26 152 40 32 57 28 51 -11z m2556 -77 c-2 -3 -18
10 -36 29 l-32 34 36 -30 c20 -16 34 -31 32 -33z m59 -34 c-15 -7 -26 -7 -33
0 -6 6 1 10 23 10 30 0 30 -1 10 -10z m-1155 -171 c101 -34 149 -55 126 -56
-17 0 -26 -36 -14 -57 6 -13 5 -24 -5 -38 -31 -42 -4 -88 62 -109 12 -4 24
-15 27 -25 13 -51 77 -42 104 14 16 33 16 36 0 53 -11 11 -33 17 -61 17 l-42
0 40 32 c51 40 84 53 114 42 32 -12 42 -48 42 -149 l0 -90 -26 10 c-21 9 -29
6 -44 -12 -33 -39 -119 -202 -126 -236 -8 -38 -41 -67 -184 -162 -52 -35 -135
-92 -183 -128 -84 -60 -90 -62 -103 -45 -14 17 -14 17 -5 -3 9 -18 5 -26 -32
-55 -23 -18 -62 -49 -86 -68 -25 -20 -42 -31 -38 -25 4 7 36 36 72 65 36 29
63 55 60 57 -2 3 -12 -1 -22 -9 -11 -9 -14 -10 -9 -1 4 6 2 12 -3 12 -6 0 -12
-8 -12 -17 -1 -16 -2 -16 -6 -2 -3 11 -11 15 -26 12 -18 -4 -19 -3 -7 7 12 9
2 10 -45 5 -65 -6 -98 -23 -37 -18 l37 3 -33 -11 c-20 -6 -38 -6 -45 -1 -7 5
-40 8 -74 8 -33 -1 -59 2 -56 7 2 4 -5 7 -17 7 -12 0 -18 -4 -15 -10 3 -5 4
-10 1 -10 -9 0 -43 36 -49 51 -4 10 -6 9 -6 -3 -1 -10 -6 -18 -12 -18 -5 0 -8
4 -5 9 4 5 2 11 -3 13 -5 1 -12 18 -14 36 -6 37 -17 55 -17 28 0 -9 -5 -14
-10 -11 -7 4 -7 13 0 25 8 16 7 18 -4 14 -8 -3 -13 -16 -11 -29 1 -14 -2 -22
-7 -19 -5 3 -7 11 -5 17 2 7 -3 17 -12 23 -13 10 -13 14 -2 28 7 9 18 16 24
16 6 0 2 -6 -9 -14 -26 -20 -11 -32 17 -13 20 15 54 13 44 -2 -2 -4 2 -8 9 -8
8 0 12 6 9 14 -3 7 -12 13 -21 13 -13 0 -12 3 4 14 14 11 21 11 27 3 6 -8 7
-5 3 7 -5 13 -2 17 8 13 8 -3 20 1 26 9 7 8 9 14 5 14 -5 0 0 9 10 20 10 12
25 18 32 15 8 -2 12 -1 9 4 -8 13 132 123 146 115 6 -4 8 -3 5 4 -14 21 291
246 431 318 48 24 97 52 110 62 23 18 23 18 4 42 l-19 23 -77 -59 c-43 -32
-120 -89 -171 -125 -51 -36 -158 -120 -239 -187 -140 -118 -165 -136 -150
-109 4 6 -2 4 -14 -7 -12 -10 -20 -21 -19 -25 2 -8 -67 -71 -79 -71 -4 0 3 12
17 28 l24 27 -27 -24 c-15 -13 -25 -27 -23 -32 5 -7 -63 -69 -77 -69 -3 0 -14
7 -22 16 -13 12 -16 12 -16 2 0 -20 -70 -10 -78 11 -3 9 -10 19 -16 24 -7 4
-8 10 -1 15 6 4 17 16 25 27 8 11 0 7 -18 -9 -20 -18 -32 -24 -32 -16 0 25
-60 -43 -61 -69 -2 -26 -2 -26 -6 -2 -4 19 10 38 68 97 40 40 77 70 82 67 6
-3 7 -1 3 6 -4 6 1 23 12 39 25 35 62 108 62 122 0 6 -6 8 -12 4 -23 -13 4 11
112 97 58 46 114 92 124 101 11 10 21 16 24 14 2 -2 -17 -23 -43 -47 -46 -42
-71 -77 -62 -85 2 -3 56 25 120 61 63 36 118 65 121 65 3 0 4 -6 2 -12 -1 -7
-1 -10 1 -5 3 4 10 4 15 1 7 -5 8 -2 4 5 -8 13 20 40 42 41 7 0 20 -9 29 -20
10 -11 21 -20 25 -20 10 0 55 46 74 75 18 27 12 44 -40 110 -22 28 -26 37 -13
32 10 -4 16 -3 12 2 -6 11 111 91 134 91 9 0 63 -15 118 -34z m-1591 -189 c-9
-84 -19 -203 -22 -264 -6 -95 -9 -111 -21 -101 -30 25 -55 71 -73 134 -16 54
-18 79 -10 136 7 59 18 87 72 180 47 82 64 105 66 89 2 -12 -4 -90 -12 -174z
m2745 170 c29 -19 34 -29 37 -68 l3 -46 -56 53 c-37 35 -53 57 -49 68 8 22 25
20 65 -7z m-100 -43 c55 -27 99 -64 99 -83 0 -21 -25 -35 -42 -24 -6 3 -8 1
-5 -4 4 -6 0 -14 -9 -17 -8 -3 -12 -2 -9 4 3 6 -5 10 -19 10 -16 0 -26 -6 -26
-15 0 -8 -2 -15 -3 -15 -6 0 -119 114 -119 119 1 4 78 37 93 40 3 1 21 -6 40
-15z m-1302 -87 c14 -23 13 -27 -10 -51 -33 -35 -44 -33 -76 15 l-27 41 28 25
c25 21 30 23 50 10 11 -8 28 -26 35 -40z m1105 24 c9 -16 34 -47 56 -68 22
-22 40 -42 40 -46 0 -3 -18 -8 -41 -12 -22 -4 -68 -18 -102 -31 -33 -13 -62
-24 -64 -24 -2 0 -1 11 3 24 3 13 1 27 -5 30 -7 5 -9 0 -5 -11 4 -14 3 -14 -7
2 -7 11 -25 35 -41 54 -16 18 -28 35 -26 37 5 5 162 72 170 73 4 1 14 -12 22
-28z m-1268 -60 c-4 -5 -32 -24 -63 -41 -65 -35 -61 -28 12 23 49 34 64 39 51
18z m1601 -43 c19 -24 118 -105 213 -175 51 -37 130 -108 130 -116 0 -2 -24
-4 -52 -5 -52 -1 -54 0 -137 73 -46 41 -107 90 -135 109 -28 19 -69 51 -91 71
-38 35 -39 38 -20 51 29 21 71 17 92 -8z m-658 -29 c21 -7 30 -16 27 -25 -3
-8 -1 -14 3 -14 5 0 11 5 13 12 3 8 13 7 34 -5 16 -9 43 -22 59 -28 24 -9 27
-13 15 -20 -41 -26 -302 -179 -305 -179 -2 0 4 24 14 53 10 28 24 81 31 116
13 63 37 101 64 101 7 0 27 -5 45 -11z m-1562 -340 c-6 -10 -15 -19 -20 -19
-4 0 -5 -4 -2 -10 3 -5 1 -10 -5 -10 -11 0 -3 47 11 66 5 6 8 13 6 15 -1 2 3
-2 10 -9 9 -11 9 -19 0 -33z m2503 -144 c45 -50 102 -121 127 -160 69 -104 89
-123 190 -171 162 -78 423 -269 423 -311 0 -8 -35 -63 -78 -122 -44 -58 -105
-149 -138 -201 -32 -51 -62 -98 -65 -103 -3 -5 -62 18 -130 51 -143 69 -307
132 -344 132 -87 0 -342 57 -471 106 -94 35 -249 116 -318 165 l-56 40 26 52
c48 95 124 194 219 286 95 92 167 143 310 221 78 43 82 44 170 43 87 -1 88 -1
35 9 -30 5 -72 8 -92 6 -21 -2 -38 -2 -38 0 0 10 126 60 136 54 7 -4 50 -48
94 -97z m-2543 -7 c-3 -8 -6 -5 -6 6 -1 11 2 17 5 13 3 -3 4 -12 1 -19z m-388
-22 c5 -6 11 -28 15 -49 9 -51 -5 -67 -60 -67 l-44 0 0 49 c0 27 -3 56 -6 64
-4 12 4 15 40 15 26 -1 50 -6 55 -12z m438 -113 c-3 -10 -5 -4 -5 12 0 17 2
24 5 18 2 -7 2 -21 0 -30z m-56 -73 c-6 -51 -13 -95 -17 -99 -3 -3 -4 12 -1
34 4 22 9 68 13 103 3 35 8 61 11 59 2 -3 0 -47 -6 -97z m949 -97 c-12 -66
-25 -83 -66 -86 -29 -2 -29 -2 -25 48 4 59 21 97 65 143 l31 33 3 -40 c2 -22
-2 -66 -8 -98z m-903 20 c-2 -21 -4 -6 -4 32 0 39 2 55 4 38 2 -18 2 -50 0
-70z m493 28 c0 -5 -11 -8 -24 -7 -13 0 -22 4 -19 9 6 10 43 9 43 -2z m-773
-13 c9 -15 11 -228 1 -228 -14 0 -30 70 -35 153 -5 75 -4 87 10 87 9 0 19 -6
24 -12z m696 5 c-7 -2 -19 -2 -25 0 -7 3 -2 5 12 5 14 0 19 -2 13 -5z m357
-25 c0 -6 -3 -8 -6 -5 -4 3 -16 1 -28 -5 -19 -10 -20 -10 -7 5 16 19 41 23 41
5z m-77 -54 c-5 -15 -3 -15 26 0 43 23 66 5 42 -32 -11 -18 -81 -34 -82 -18
-3 26 6 66 15 66 3 0 3 -7 -1 -16z m-686 -16 c-3 -8 -6 -5 -6 6 -1 11 2 17 5
13 3 -3 4 -12 1 -19z m441 -25 c-27 -2 -69 -2 -95 0 -27 2 -5 3 47 3 52 0 74
-1 48 -3z m2942 -404 c10 -22 8 -34 -9 -68 -12 -22 -32 -48 -45 -56 -22 -15
-29 -15 -77 -1 -51 15 -52 15 -35 -3 27 -30 71 -45 94 -32 12 6 25 11 31 11
13 0 4 -54 -16 -92 -28 -57 -183 -188 -222 -188 -31 0 -91 33 -125 69 -26 27
-28 34 -18 56 23 51 222 345 263 390 l42 46 53 -52 c29 -29 58 -65 64 -80z
m-2666 -116 c-44 -67 -97 -159 -181 -313 -83 -152 -172 -295 -255 -411 -109
-153 -131 -184 -132 -186 -1 -1 -62 13 -136 32 -150 38 -282 63 -353 66 -26 2
-47 5 -47 9 0 3 24 71 54 150 30 80 78 221 106 314 53 175 96 283 121 302 33
26 396 57 718 62 l123 2 -18 -27z m2557 -31 c-7 -2 -18 1 -23 6 -8 8 -4 9 13
5 13 -4 18 -8 10 -11z m-3503 -26 c0 -35 -38 -66 -81 -68 -36 -1 -67 15 -67
36 0 8 101 48 141 55 4 1 7 -10 7 -23z m-556 -31 c9 -4 13 -18 10 -43 -6 -75
-10 -82 -42 -82 -31 0 -36 10 -32 65 5 61 21 76 64 60z m378 -5 c0 -22 -28
-76 -48 -94 -15 -13 -29 -16 -47 -12 -23 6 -25 11 -25 56 l0 49 48 4 c26 2 53
4 60 5 6 1 12 -3 12 -8z m-270 -39 c0 -54 -18 -101 -40 -101 -26 0 -39 21 -35
60 2 19 4 45 4 58 1 18 7 22 36 22 34 0 35 -1 35 -39z m120 -22 c-6 -63 -17
-79 -56 -79 -26 0 -34 17 -34 70 0 61 7 70 54 70 l42 0 -6 -61z m465 -723
c136 -32 210 -52 224 -60 26 -16 -28 -133 -86 -187 -51 -48 -91 -62 -158 -57
-44 4 -62 11 -85 33 -39 37 -44 58 -26 94 19 35 20 51 5 51 -5 0 -14 -13 -20
-28 -27 -79 -173 -84 -223 -8 -31 48 -15 143 32 192 19 20 23 21 123 8 57 -7
154 -24 214 -38z"/>
<path d="M5685 6407 c-242 -125 -432 -275 -491 -389 -18 -34 -18 -35 6 -41 17
-4 18 -9 9 -37 -16 -45 -5 -48 40 -12 22 18 42 32 45 32 3 0 6 -12 6 -26 0
-44 43 -214 54 -214 6 -1 30 -40 53 -88 53 -113 77 -142 113 -142 23 0 168 34
242 56 14 4 13 10 -9 52 -61 111 -107 133 -277 136 -64 0 -116 4 -116 7 0 16
40 39 85 49 52 12 111 42 133 68 19 25 14 121 -9 172 -12 25 -25 56 -30 70
l-9 25 22 -27 c13 -15 46 -59 73 -98 70 -99 99 -115 203 -114 l83 0 -28 -23
c-15 -13 -45 -35 -65 -48 -65 -43 -73 -87 -37 -194 19 -55 24 -62 43 -57 11 3
82 18 156 33 74 14 138 31 142 37 4 6 8 41 8 77 0 177 -110 404 -245 501 l-40
30 65 -7 c84 -8 187 -38 231 -67 48 -32 85 -113 112 -245 23 -113 51 -170 68
-140 21 36 30 122 39 352 l10 250 -23 22 c-21 21 -31 22 -251 27 -186 5 -232
8 -246 21 -9 8 -23 15 -31 15 -8 -1 -68 -29 -134 -63z m414 -744 c1 -16 -6
-24 -21 -27 -21 -4 -108 -22 -223 -47 -21 -4 -40 -7 -41 -6 -1 1 -5 14 -9 30
-6 22 -4 27 11 27 11 0 57 11 104 24 47 14 102 28 123 31 20 3 37 11 38 18 1
19 18 -26 18 -50z m-361 -82 c15 -29 16 -26 -7 -28 -11 -1 -40 -9 -64 -17 -25
-8 -75 -18 -110 -22 -65 -7 -65 -7 -81 24 -18 35 -23 32 79 51 131 24 167 22
183 -8z"/>
<path d="M6177 6449 c7 -7 15 -10 18 -7 3 3 -2 9 -12 12 -14 6 -15 5 -6 -5z"/>
<path d="M5244 6314 c-18 -14 -18 -15 4 -4 12 6 22 13 22 15 0 8 -5 6 -26 -11z"/>
<path d="M5183 6279 c-35 -22 -46 -37 -15 -20 22 13 58 40 52 41 -3 0 -20 -10
-37 -21z"/>
<path d="M5222 6143 c-28 -21 -53 -43 -56 -50 -3 -7 22 8 54 33 53 40 68 54
57 54 -2 0 -26 -17 -55 -37z"/>
<path d="M6013 6146 c4 -11 0 -13 -16 -11 -18 4 -19 3 -6 -9 10 -10 29 -11 69
-6 30 4 42 8 27 9 -18 0 -26 5 -21 12 4 7 -1 7 -16 -1 -12 -7 -20 -8 -16 -2 3
5 -1 13 -10 16 -11 4 -15 2 -11 -8z"/>
<path d="M3783 5943 c37 -2 97 -2 135 0 37 2 6 3 -68 3 -74 0 -105 -1 -67 -3z"/>
<path d="M4008 5933 c6 -2 18 -2 25 0 6 3 1 5 -13 5 -14 0 -19 -2 -12 -5z"/>
<path d="M6240 5476 c0 -2 8 -10 18 -17 15 -13 16 -12 3 4 -13 16 -21 21 -21
13z"/>
<path d="M5444 4982 c-6 -4 -18 -21 -27 -38 -21 -41 -102 -100 -170 -124 -29
-10 -94 -24 -143 -31 -67 -9 -104 -21 -152 -47 -104 -57 -230 -56 -315 3 -39
26 -55 19 -37 -16 19 -34 76 -51 170 -51 92 0 141 13 211 57 31 20 64 30 120
36 86 10 192 40 260 74 43 22 119 95 119 114 0 14 -25 30 -36 23z"/>
<path d="M7606 3853 c-6 -14 -5 -15 5 -6 7 7 10 15 7 18 -3 3 -9 -2 -12 -12z"/>
<path d="M7620 3771 c0 -5 7 -11 14 -14 10 -4 13 -1 9 9 -6 15 -23 19 -23 5z"/>
<path d="M7028 3653 c7 -3 16 -2 19 1 4 3 -2 6 -13 5 -11 0 -14 -3 -6 -6z"/>
<path d="M7088 3643 c12 -2 30 -2 40 0 9 3 -1 5 -23 4 -22 0 -30 -2 -17 -4z"/>
<path d="M7600 3640 c0 -5 5 -10 11 -10 5 0 7 5 4 10 -3 6 -8 10 -11 10 -2 0
-4 -4 -4 -10z"/>
<path d="M7158 3633 c7 -3 16 -2 19 1 4 3 -2 6 -13 5 -11 0 -14 -3 -6 -6z"/>
<path d="M7238 3623 c7 -3 16 -2 19 1 4 3 -2 6 -13 5 -11 0 -14 -3 -6 -6z"/>
<path d="M7570 3605 c-14 -8 -20 -14 -15 -14 6 0 21 6 35 14 14 8 21 14 15 14
-5 0 -21 -6 -35 -14z"/>
<path d="M7677 3303 c3 -7 9 -10 14 -7 14 8 11 21 -5 21 -8 0 -12 -6 -9 -14z"/>
<path d="M7603 3278 c0 -13 1 -17 4 -10 3 6 10 9 16 5 7 -4 6 1 -2 10 -17 21
-17 21 -18 -5z"/>
<path d="M7637 3289 c7 -7 15 -10 18 -7 3 3 -2 9 -12 12 -14 6 -15 5 -6 -5z"/>
<path d="M7340 3209 c-13 -9 -13 -10 1 -6 9 3 23 0 30 -6 11 -10 11 -9 0 6 -7
9 -14 17 -15 17 0 0 -8 -5 -16 -11z"/>
<path d="M7867 3850 c3 -11 7 -20 9 -20 2 0 4 9 4 20 0 11 -4 20 -9 20 -5 0
-7 -9 -4 -20z"/>
<path d="M5610 2729 c0 -5 5 -7 10 -4 6 3 10 8 10 11 0 2 -4 4 -10 4 -5 0 -10
-5 -10 -11z"/>
<path d="M5197 2563 c-12 -11 -7 -40 8 -53 13 -11 14 -10 9 5 -5 13 -4 16 4
11 7 -4 12 -2 12 4 0 7 -7 9 -16 6 -12 -4 -14 -1 -9 14 6 20 4 25 -8 13z"/>
<path d="M5266 2443 c-6 -14 -5 -15 5 -6 7 7 10 15 7 18 -3 3 -9 -2 -12 -12z"/>
<path d="M6718 3013 c7 -3 16 -2 19 1 4 3 -2 6 -13 5 -11 0 -14 -3 -6 -6z"/>
<path d="M5689 2573 l-34 -38 38 34 c34 33 42 41 34 41 -2 0 -19 -17 -38 -37z"/>
<path d="M5953 2509 c-2 -23 3 -25 10 -4 4 8 3 16 -1 19 -4 3 -9 -4 -9 -15z"/>
<path d="M5920 2470 c-8 -5 -10 -10 -5 -10 6 0 17 5 25 10 8 5 11 10 5 10 -5
0 -17 -5 -25 -10z"/>
<path d="M6270 2320 c8 -5 20 -10 25 -10 6 0 3 5 -5 10 -8 5 -19 10 -25 10 -5
0 -3 -5 5 -10z"/>
<path d="M7576 3191 c-17 -6 -17 -8 -3 -14 8 -3 21 1 27 9 13 15 6 17 -24 5z"/>
<path d="M7562 3158 c3 -7 17 -13 31 -14 14 -1 24 3 21 7 -2 4 -11 6 -19 2 -8
-3 -15 0 -15 6 0 6 -5 11 -11 11 -6 0 -9 -6 -7 -12z"/>
<path d="M7395 2999 c5 -6 55 0 55 7 0 3 -13 3 -29 2 -16 -1 -28 -5 -26 -9z"/>
<path d="M7365 2980 c-3 -6 1 -7 9 -4 18 7 21 14 7 14 -6 0 -13 -4 -16 -10z"/>
<path d="M7078 3003 c-10 -2 -18 -5 -18 -6 0 -1 -4 -17 -10 -35 -8 -31 -8 -32
7 -20 15 11 16 11 10 -5 -4 -11 -3 -16 3 -12 5 3 8 19 6 35 -4 32 14 45 35 27
11 -10 11 -9 0 6 -7 9 -14 16 -15 16 0 -1 -9 -3 -18 -6z"/>
<path d="M5560 2679 c0 -5 5 -7 10 -4 6 3 10 8 10 11 0 2 -4 4 -10 4 -5 0 -10
-5 -10 -11z"/>
<path d="M5530 1245 c0 -27 5 -57 10 -65 7 -11 10 -1 10 35 0 28 -5 57 -10 65
-7 11 -10 1 -10 -35z"/>
</g>
</svg>
